#!OML:ASF H:\Terrain\Patient Classification 1\Walking\steve\steve.ASF
:FULLY-SPECIFIED
:DEGREES
158
root 8.20232 16.0631 -4.45321 6.45273 -0.73263 4.7061
lowerback 2.41216 0.523158 -4.52513
upperback -2.48518 0.485677 -0.590746
thorax -3.95492 0.361992 1.89762
lowerneck -9.90537 -0.607692 -2.09727
upperneck 11.9335 -1.02206 3.86709
head 5.24805 -0.328888 1.4744
rclavicle 7.0817e-015 -1.51076e-014
rhumerus -86.2678 -36.6318 -12.5444
rradius 12.6266
rwrist 59.6411
rhand -17.6203 -34.5354
rfingers 7.12502
rthumb 8.63677 -64.3388
lclavicle 7.0817e-015 -1.51076e-014
lhumerus -22.377 -5.18438 87.8946
lradius 38.8876
lwrist 22.5848
lhand -25.8322 -13.5735
lfingers 7.12502
lthumb 0.707858 16.4051
rfemur -42.8439 1.75297 18.5747
rtibia 39.9688
rfoot -14.5236 2.96203
rtoes -14.7488
lfemur 1.1043 4.55857 -28.2809
ltibia 19.1184
lfoot -16.9493 -9.19338
ltoes 2.68284
159
root 8.19481 16.0711 -4.18318 6.50359 -0.202653 4.93749
lowerback 2.32389 0.307218 -4.80118
upperback -2.38236 0.193638 -0.606616
thorax -3.78058 0.218879 2.05371
lowerneck -10.3112 -0.553642 -1.82475
upperneck 12.0735 -0.963607 3.66696
head 5.35652 -0.296822 1.37204
rclavicle 6.57232e-015 3.57812e-015
rhumerus -89.0544 -36.3971 -8.14759
rradius 12.6065
rwrist 62.1336
rhand -17.7298 -34.6526
rfingers 7.12502
rthumb 8.53111 -64.4603
lclavicle 6.57232e-015 3.57812e-015
lhumerus -21.323 -6.0785 87.6673
lradius 40.6112
lwrist 23.0738
lhand -25.8988 -13.9596
lfingers 7.12502
lthumb 0.643488 16.0192
rfemur -42.9182 2.16476 17.7453
rtibia 36.4408
rfoot -14.3367 2.52746
rtoes -13.5529
lfemur 3.41774 5.30421 -28.1347
ltibia 16.7439
lfoot -15.8039 -9.93045
ltoes 1.18482
160
root 8.19235 16.072 -3.91253 6.66046 0.258384 4.99737
lowerback 2.28261 0.16364 -4.86331
upperback -2.47953 0.00260438 -0.494781
thorax -3.84506 0.130305 2.21468
lowerneck -10.0249 -0.552679 -2.01586
upperneck 11.7716 -0.932655 3.70838
head 5.21417 -0.292271 1.41735
rclavicle 1.73812e-014 7.95139e-016
rhumerus -91.5898 -35.7803 -3.91595
rradius 12.6178
rwrist 64.0016
rhand -18.3938 -34.7598
rfingers 7.12502
rthumb 7.89024 -64.5926
lclavicle 1.73812e-014 7.95139e-016
lhumerus -20.5176 -6.91886 87.6395
lradius 42.2386
lwrist 23.4579
lhand -25.2915 -14.8761
lfingers 7.12502
lthumb 1.23002 15.1001
rfemur -43.196 2.51452 17.1256
rtibia 33.2694
rfoot -14.2552 2.41572
rtoes -14.3997
lfemur 5.94206 5.79354 -27.8468
ltibia 13.5806
lfoot -14.4154 -10.3197
ltoes -1.33983
161
root 8.18992 16.0598 -3.64577 6.94856 0.824209 5.26321
lowerback 2.31125 -0.0186355 -5.12928
upperback -2.71978 -0.259288 -0.432892
thorax -4.09238 0.0187719 2.44247
lowerneck -9.89778 -0.656143 -2.01867
upperneck 11.7307 -1.0465 3.51307
head 5.18243 -0.362801 1.34824
rclavicle 1.13556e-014 -3.61788e-014
rhumerus -92.977 -34.7482 -1.44506
rradius 12.5965
rwrist 64.5032
rhand -19.0587 -34.7113
rfingers 7.12502
rthumb 7.24846 -64.5671
lclavicle 1.13556e-014 -3.61788e-014
lhumerus -19.9426 -7.76038 87.5948
lradius 44.0535
lwrist 23.8047
lhand -25.2351 -15.3704
lfingers 7.12502
lthumb 1.28446 14.6054
rfemur -43.6077 2.95076 16.1682
rtibia 30.3801
rfoot -14.5145 2.26531
rtoes -13.4167
lfemur 8.6224 4.94075 -27.956
ltibia 9.74295
lfoot -12.5381 -9.76832
ltoes -0.568805
162
root 8.18829 16.0432 -3.37722 7.39135 1.60702 6.08794
lowerback 2.02862 -0.308371 -5.7925
upperback -2.86331 -0.666015 -0.602433
thorax -4.04794 -0.164634 2.65898
lowerneck -9.79072 -0.627607 -2.01603
upperneck 11.7113 -1.00963 3.51656
head 5.15725 -0.345516 1.35159
rclavicle -8.65956e-015 2.94201e-014
rhumerus -93.9858 -33.9137 0.156762
rradius 12.6119
rwrist 64.4946
rhand -19.4907 -34.7336
rfingers 7.12502
rthumb 6.83152 -64.6034
lclavicle -8.65956e-015 2.94201e-014
lhumerus -19.3571 -8.5944 87.4562
lradius 45.9777
lwrist 24.2522
lhand -25.9574 -15.1493
lfingers 7.12502
lthumb 0.586887 14.8296
rfemur -44.0815 2.67049 14.8317
rtibia 27.6708
rfoot -14.2095 2.22885
rtoes -7.89452
lfemur 11.5682 3.79976 -28.7478
ltibia 5.26134
lfoot -10.1778 -8.88017
ltoes 1.42929
163
root 8.1918 16.0269 -3.10288 7.78762 2.37258 6.20597
lowerback 1.48823 -0.572028 -5.51579
upperback -2.82683 -0.970638 -0.662904
thorax -3.67951 -0.33614 2.44985
lowerneck -9.5594 -0.537107 -2.07963
upperneck 11.3819 -0.888234 3.64063
head 5.01337 -0.284726 1.40822
rclavicle -4.03781e-015 1.98785e-015
rhumerus -94.579 -33.4765 0.69646
rradius 12.7898
rwrist 63.4424
rhand -19.8418 -34.7551
rfingers 7.12502
rthumb 6.49253 -64.6356
lclavicle -4.03781e-015 1.98785e-015
lhumerus -18.609 -9.28794 87.1747
lradius 47.862
lwrist 24.4197
lhand -25.6195 -15.2688
lfingers 7.12502
lthumb 0.913259 14.709
rfemur -44.5471 1.76715 14.7775
rtibia 25.3819
rfoot -13.5612 2.6361
rtoes -6.35948
lfemur 14.9127 2.77287 -28.8621
ltibia 1.27222e-014
lfoot -7.67707 -7.64347
ltoes 1.15343
164
root 8.18825 16.0043 -2.83577 8.0398 2.96262 5.092
lowerback 1.2518 -0.750153 -4.21719
upperback -2.86887 -1.14268 -0.311768
thorax -3.58531 -0.455065 2.09008
lowerneck -9.29478 -0.488791 -1.98733
upperneck 10.8599 -0.801597 3.44598
head 4.80405 -0.256394 1.33662
rclavicle 1.10574e-014 -3.18055e-015
rhumerus -94.0992 -32.9712 -0.669433
rradius 13.1746
rwrist 60.8351
rhand -19.8984 -34.9671
rfingers 7.12502
rthumb 6.43791 -64.8492
lclavicle 1.10574e-014 -3.18055e-015
lhumerus -18.0391 -9.71489 86.8513
lradius 49.7959
lwrist 24.322
lhand -25.0682 -15.8029
lfingers 7.12502
lthumb 1.44575 14.172
rfemur -45.0855 1.09273 16.3395
rtibia 23.9162
rfoot -13.4398 3.11565
rtoes -8.34045
lfemur 15.5911 2.06221 -27.5411
ltibia 5.08889e-014
lfoot -7.27713 -7.47136
ltoes 2.41119
165
root 8.18016 15.9816 -2.57161 8.23047 3.62964 4.74111
lowerback 1.25841 -0.977577 -3.85103
upperback -2.96479 -1.43046 -0.0813908
thorax -3.67077 -0.602349 2.13569
lowerneck -9.36655 -0.455533 -1.77365
upperneck 10.6872 -0.726845 2.99563
head 4.75857 -0.239717 1.16658
rclavicle -1.74682e-014 -7.15625e-015
rhumerus -93.9587 -32.3992 -1.03009
rradius 13.4104
rwrist 59.0152
rhand -19.542 -35.3109
rfingers 7.12502
rthumb 6.78197 -65.1822
lclavicle -1.74682e-014 -7.15625e-015
lhumerus -17.5951 -10.3909 86.5637
lradius 51.6041
lwrist 24.6269
lhand -25.7536 -15.8367
lfingers 7.12502
lthumb 0.783682 14.1416
rfemur -45.5512 0.265856 17.0574
rtibia 23.1602
rfoot -13.5484 3.80946
rtoes -8.36983
lfemur 16.3569 1.202 -27.0354
ltibia -1.90833e-014
lfoot -6.64098 -7.11575
ltoes 4.73557
166
root 8.18634 15.9696 -2.28996 8.30637 4.36656 5.79234
lowerback 1.17525 -1.29019 -4.66782
upperback -2.95389 -1.87485 -0.275471
thorax -3.56829 -0.805707 2.40745
lowerneck -9.53288 -0.350695 -1.63292
upperneck 10.8657 -0.564416 2.64729
head 4.83622 -0.174436 1.04733
rclavicle 1.36913e-014 -1.35174e-014
rhumerus -95.1824 -31.9846 1.55886
rradius 13.2877
rwrist 59.9244
rhand -18.6458 -35.0615
rfingers 7.12502
rthumb 7.647 -64.9033
lclavicle 1.36913e-014 -1.35174e-014
lhumerus -17.1724 -11.1008 86.2517
lradius 53.1341
lwrist 25.0725
lhand -26.4098 -16.2599
lfingers 7.12502
lthumb 0.149983 13.7198
rfemur -45.7677 -0.917652 16.1361
rtibia 22.9292
rfoot -13.6201 4.77351
rtoes -8.65876
lfemur 17.3671 0.143812 -28.12
ltibia -6.04305e-014
lfoot -6.33364 -6.71612
ltoes 3.69628
167
root 8.19448 15.9533 -2.00907 8.29661 4.74319 6.39149
lowerback 1.22002 -1.5222 -5.15364
upperback -2.97779 -2.2025 -0.258913
thorax -3.57808 -0.95418 2.70979
lowerneck -9.49572 -0.289643 -1.65665
upperneck 10.8859 -0.429148 2.24416
head 4.83246 -0.135083 0.935592
rclavicle 2.1096e-014 -4.37326e-015
rhumerus -95.8131 -31.5824 3.41067
rradius 13.2681
rwrist 60.7087
rhand -17.6257 -34.8913
rfingers 7.12502
rthumb 8.63155 -64.6948
lclavicle 2.1096e-014 -4.37326e-015
lhumerus -17.0067 -11.2805 86.0668
lradius 54.6076
lwrist 25.1727
lhand -26.4938 -17.1747
lfingers 7.12502
lthumb 0.0687931 12.805
rfemur -46.0592 -1.24814 15.4299
rtibia 23.3015
rfoot -13.9948 5.36176
rtoes -10.1898
lfemur 18.4474 -0.501126 -28.7321
ltibia 6.36111e-015
lfoot -5.8641 -6.48637
ltoes 2.09281
168
root 8.19214 15.9196 -1.73359 8.28464 4.81158 6.12517
lowerback 1.18628 -1.57575 -4.90408
upperback -2.88174 -2.25309 0.00614022
thorax -3.45237 -0.987676 2.843
lowerneck -10.5915 -0.519294 -1.54551
upperneck 11.5004 -0.658606 1.54017
head 5.20917 -0.283349 0.682764
rclavicle -1.22004e-014 3.97569e-015
rhumerus -95.5811 -31.5059 3.44957
rradius 13.3927
rwrist 59.7071
rhand -17.3949 -35.2554
rfingers 7.12502
rthumb 8.85431 -65.0496
lclavicle -1.22004e-014 3.97569e-015
lhumerus -16.6282 -11.4231 85.9633
lradius 55.948
lwrist 25.1401
lhand -26.9933 -17.7619
lfingers 7.12502
lthumb -0.413647 12.2174
rfemur -46.3533 -0.778947 15.5422
rtibia 24.0116
rfoot -14.389 5.84004
rtoes -9.94638
lfemur 19.4872 -0.759989 -28.3973
ltibia 2.54444e-014
lfoot -4.96398 -6.06229
ltoes 0.32005
